<svg xmlns="http://www.w3.org/2000/svg">

<symbol id="ic-home" viewBox="0 0 26.39 26.39">
	<path d="M3.588,24.297c0,0-0.024,0.59,0.553,0.59c0.718,0,6.652-0.008,6.652-0.008l0.01-5.451c0,0-0.094-0.898,0.777-0.898h2.761    c1.031,0,0.968,0.898,0.968,0.898l-0.012,5.434c0,0,5.628,0,6.512,0c0.732,0,0.699-0.734,0.699-0.734V14.076L13.33,5.913    l-9.742,8.164C3.588,14.077,3.588,24.297,3.588,24.297z" />
		<path d="M0,13.317c0,0,0.826,1.524,2.631,0l10.781-9.121l10.107,9.064c2.088,1.506,2.871,0,2.871,0L13.412,1.504L0,13.317z" />
		<polygon points="23.273,4.175 20.674,4.175 20.685,7.328 23.273,9.525" />
</symbol>

<symbol id="ic-chrome" viewBox="0 0 512 512">
	<path d="M129.139,223.29L55.873,96.389C102.782,37.657,174.99,0.019,256,0.019c93.717,0,175.654,50.368,220.266,125.5H267.381   c-3.752-0.325-7.546-0.5-11.381-0.5C195.063,125.019,143.711,166.841,129.139,223.29z M347.652,162.519h146.73   c11.371,28.965,17.617,60.502,17.617,93.5c0,140.413-113.051,254.402-253.094,255.963l104.697-181.339   C378.344,309.454,387,283.729,387,256.019C387,219.434,371.918,186.309,347.652,162.519z M163,256.019c0-51.28,41.72-93,93-93   c51.279,0,93,41.72,93,93c0,51.279-41.721,93-93,93C204.72,349.019,163,307.298,163,256.019z M291.091,382.239l-73.289,126.939   C94.536,490.736,0,384.421,0,256.019c0-45.609,11.942-88.423,32.848-125.512l104.515,181.027   c20.934,44.555,66.238,75.484,118.637,75.484C268.15,387.019,279.918,385.349,291.091,382.239z"/>
</symbol>

</svg>